<svg class="sprite-icons" xmlns="http://www.w3.org/2000/svg">

    <symbol id="icon-location" viewBox="0 0 14 20">
        <title>Location</title>
        <!-- width="14" height="20" -->
        <path d="M7 0C3.13 0 0 3.128 0 6.99553C0 12.2422 7 19.9872 7 19.9872C7 19.9872 14 12.2422 14 6.99553C14 3.128 10.87 0 7 0Z" fill="#219653"/>
        <path d="M7 9.49388C5.62 9.49388 4.5 8.3746 4.5 6.99548C4.5 5.61636 5.62 4.49707 7 4.49707C8.38 4.49707 9.5 5.61636 9.5 6.99548C9.5 8.3746 8.38 9.49388 7 9.49388Z" fill="#FEFEFE"/>
    </symbol>

    <symbol id="icon-burger" viewBox="0 0 17 15">
        <title>Burger</title>
        <!-- width="17" height="15" -->
        <rect x="0.8" y="0.8" width="15.3999" height="1.55908" rx="0.779542" fill="#222222" stroke="#222222" stroke-width="0.4"/>
        <rect x="0.8" y="6.72041" width="15.3999" height="1.55908" rx="0.779542" fill="#222222" stroke="#222222" stroke-width="0.4"/>
        <rect x="0.8" y="12.6408" width="15.3999" height="1.55908" rx="0.779542" fill="#222222" stroke="#222222" stroke-width="0.4"/>
    </symbol>

    <symbol id="icon-time" viewBox="0 0 15 15">
        <title>Time</title>
        <!-- width="15" height="15" -->
        <path fill-rule="evenodd" clip-rule="evenodd" d="M7.4925 0C3.3525 0 0 3.36 0 7.5C0 11.64 3.3525 15 7.4925 15C11.64 15 15 11.64 15 7.5C15 3.36 11.64 0 7.4925 0ZM7.49937 13.4999C4.18437 13.4999 1.49937 10.8149 1.49937 7.4999C1.49937 4.1849 4.18437 1.4999 7.49937 1.4999C10.8144 1.4999 13.4994 4.1849 13.4994 7.4999C13.4994 10.8149 10.8144 13.4999 7.49937 13.4999ZM6.74979 3.75H7.87479V7.62295L11.2498 9.59262L10.6873 10.5L6.74979 8.17623V3.75Z" fill="#7198CB"/>
    </symbol>

    <symbol id="icon-star" viewBox="0 0 16 15">
        <title>Star</title>
        <path d="M15.4829 5.27849L10.6864 4.59458L8.54222 0.329912C8.48365 0.213148 8.38731 0.118624 8.26829 0.061169C7.96981 -0.0833961 7.6071 0.0370749 7.45786 0.329912L5.3137 4.59458L0.517213 5.27849C0.384974 5.29702 0.26407 5.35818 0.171503 5.45085C0.0595945 5.5637 -0.0020722 5.71552 5.31712e-05 5.87295C0.00217854 6.03038 0.0679221 6.18055 0.182838 6.29044L3.65316 9.60988L2.83328 14.2971C2.81405 14.4062 2.82635 14.5183 2.86878 14.6208C2.91121 14.7234 2.98207 14.8122 3.07333 14.8772C3.16459 14.9422 3.27259 14.9809 3.38509 14.9887C3.4976 14.9966 3.6101 14.9734 3.70983 14.9217L8.00004 12.7088L12.2902 14.9217C12.4074 14.9829 12.5434 15.0033 12.6737 14.981C13.0024 14.9254 13.2235 14.6196 13.1668 14.2971L12.3469 9.60988L15.8172 6.29044C15.9117 6.19963 15.974 6.08101 15.9929 5.95127C16.0439 5.62693 15.8135 5.32668 15.4829 5.27849Z"/>
    </symbol>

    <symbol id="icon-arrow" viewBox="0 0 15 8">
        <title>Arrow</title>
        <!-- width="15" height="8" -->
        <path d="M7.27321 7.27753C7.03048 7.278 6.79525 7.19342 6.60835 7.03845L0.375285 1.84115C0.163135 1.66471 0.0297226 1.41117 0.00439587 1.13631C-0.0209309 0.861453 0.0639031 0.587782 0.240235 0.375507C0.416567 0.163232 0.669953 0.0297403 0.94465 0.0043985C1.21935 -0.0209433 1.49285 0.0639406 1.705 0.240377L7.27321 4.89716L12.8414 0.406692C12.9477 0.320348 13.0699 0.255868 13.2012 0.21696C13.3324 0.178051 13.4701 0.16548 13.6062 0.179969C13.7423 0.194458 13.8742 0.235721 13.9943 0.301388C14.1145 0.367055 14.2204 0.45583 14.3062 0.56261C14.4013 0.669489 14.4734 0.794876 14.5178 0.930914C14.5623 1.06695 14.5782 1.21071 14.5645 1.35318C14.5509 1.49565 14.508 1.63377 14.4385 1.75888C14.369 1.88398 14.2744 1.99338 14.1607 2.08022L7.92768 7.10082C7.7354 7.23129 7.50497 7.29351 7.27321 7.27753Z" />
    </symbol>

</svg>